<svg xmlns="http://www.w3.org/2000/svg" xmlns:xlink="http://www.w3.org/1999/xlink" viewBox="0 0 176 176"><defs><style>.cls-1{fill:none;clip-rule:evenodd;}.cls-2{fill:#005572;}.cls-3{fill:#055773;}.cls-4{clip-path:url(#clip-path);}.cls-5{fill:#005571;}</style><clipPath id="clip-path"><path class="cls-1" d="M42.23,35a5.46,5.46,0,1,1-5.46-5.45A5.46,5.46,0,0,1,42.23,35"/></clipPath></defs><g id="icon_art" data-name="icon art"><path class="cls-2" d="M58.26,131.15h-43A12.73,12.73,0,0,1,2.54,118.46V22.84A12.73,12.73,0,0,1,15.29,10.16h43A12.72,12.72,0,0,1,71,22.84v95.62A12.72,12.72,0,0,1,58.26,131.15Zm-43-114a5.72,5.72,0,0,0-5.75,5.68v95.62a5.73,5.73,0,0,0,5.75,5.69h43A5.72,5.72,0,0,0,64,118.46V22.84a5.71,5.71,0,0,0-5.74-5.68Z"/><path class="cls-2" d="M55.61,165.84H17.94a3.5,3.5,0,0,1-3.5-3.5V135.58a3.5,3.5,0,0,1,7,0v23.26H52.11V135.58a3.5,3.5,0,0,1,7,0v26.76A3.5,3.5,0,0,1,55.61,165.84Z"/><path class="cls-3" d="M36.77,91.5a18.38,18.38,0,1,1,0-36.74,18.38,18.38,0,1,1,0,36.74Zm0-29.74a11.38,11.38,0,1,0,0,22.74,11.38,11.38,0,1,0,0-22.74Z"/><g class="cls-4"><rect class="cls-5" x="26.37" y="24.56" width="20.82" height="20.82"/></g><path class="cls-3" d="M42.23,153a3.5,3.5,0,0,1-3.5-3.5v-8.92a3.5,3.5,0,0,1,7,0v8.92A3.5,3.5,0,0,1,42.23,153Zm-10.91,0a3.5,3.5,0,0,1-3.5-3.5v-8.92a3.5,3.5,0,0,1,7,0v8.92A3.5,3.5,0,0,1,31.32,153Z"/><g id="Interface-Essential_TouchID_touch-id-4" data-name="Interface-Essential / TouchID / touch-id-4"><g id="Group_51" data-name="Group 51"><g id="touch-id-4"><path class="cls-3" d="M103.33,109.24a3.5,3.5,0,0,1-3.5-3.5V82.57c0-16.31,12-29.57,26.67-29.57s26.67,13.26,26.67,29.57v5.79a3.5,3.5,0,0,1-7,0V82.57c0-12.45-8.82-22.57-19.67-22.57s-19.67,10.12-19.67,22.57v23.17A3.5,3.5,0,0,1,103.33,109.24Z"/><path class="cls-3" d="M149.68,109.24a3.5,3.5,0,0,1-3.5-3.5V100a3.5,3.5,0,1,1,7,0v5.79A3.5,3.5,0,0,1,149.68,109.24Z"/><path class="cls-3" d="M114.92,109.24a3.5,3.5,0,0,1-3.5-3.5V100a3.5,3.5,0,0,1,7,0v5.79A3.5,3.5,0,0,1,114.92,109.24Z"/><path class="cls-3" d="M138.09,109.24a3.5,3.5,0,0,1-3.5-3.5V85.46c0-5.95-3.71-11-8.09-11s-8.09,5-8.09,11v2.9a3.5,3.5,0,0,1-7,0v-2.9c0-9.91,6.77-18,15.09-18s15.09,8.07,15.09,18v20.28A3.5,3.5,0,0,1,138.09,109.24Z"/><path class="cls-3" d="M126.5,109.24a3.5,3.5,0,0,1-3.5-3.5v-2.9a3.5,3.5,0,0,1,7,0v2.9A3.5,3.5,0,0,1,126.5,109.24Z"/><path class="cls-3" d="M126.5,94.76a3.5,3.5,0,0,1-3.5-3.5V82.57a3.5,3.5,0,0,1,7,0v8.69A3.5,3.5,0,0,1,126.5,94.76Z"/><path class="cls-2" d="M126.5,132.41a47,47,0,1,1,46.95-46.95A47,47,0,0,1,126.5,132.41Zm0-86.9a40,40,0,1,0,39.95,39.95A40,40,0,0,0,126.5,45.51Z"/></g></g></g></g></svg>